<svg id="Layer_1" data-name="Layer 1" xmlns="http://www.w3.org/2000/svg" width="500" height="500" viewBox="0 0 500 500">
  <title>female</title>
  <g>
    <path d="M193.45,110.71c-10.23,11.67-18.75,26-18.78,41.49,0,20,13.65,37,22.85,54.79s12.62,43-3.36,55.06c-4.8,3.63-10.7,5.45-16,8.34-26,14.23-30.64,48.88-32.29,78.44-.47,8.55-.91,17.39,2.13,25.4s9.53,14.64,16.6,19.74c36.35,26.19,89.3,18,125.34-8.6,16.28-12,30.76-28.77,33.05-48.88,3.65-32-24-61.63-19.29-93.45,3.13-21.18,20-38,25.28-58.7,7.88-31-17.11-82.61-43.09-100.41C256.81,64,213.12,88.27,193.45,110.71Z" fill="#ff88e6"/>
    <circle cx="250" cy="168" r="29" fill="#a82d4a"/>
  </g>
</svg>
